<svg width="67" height="18" viewBox="0 0 67 18" fill="none" xmlns="http://www.w3.org/2000/svg">
<path d="M4.12716 1.83421H0.794189V14.3671C0.794189 16.1282 1.61601 17.2259 3.73907 17.2259H11.2953V14.1385H4.12716V1.83421ZM18.8109 17.5232C21.2079 17.5232 23.0798 16.3569 24.0615 14.3214L21.5732 13.0635C21.0481 14.1156 20.0209 14.7102 18.7881 14.7102C17.1672 14.7102 16.003 13.7039 15.7747 12.1945H24.1756V11.2339C24.1756 8.1464 22.0982 5.49345 18.5142 5.49345C15.0214 5.49345 12.6472 8.19215 12.6472 11.4626C12.6472 15.0761 15.2953 17.5232 18.8109 17.5232ZM15.9117 10.3877C16.14 9.24421 17.0759 8.32934 18.4913 8.32934C19.861 8.32934 20.8198 9.22133 20.9568 10.3877H15.9117ZM31.001 17.2259V8.64955H34.996V17.2259H38.2376V5.90509H31.001V5.42482C31.001 4.14414 31.7543 3.5266 32.9871 3.5266C33.5806 3.5266 34.2655 3.68675 34.7906 4.00688V0.850784C34.2198 0.599209 33.4437 0.462021 32.6903 0.462021C29.3801 0.462021 27.7594 2.58894 27.7594 5.31051V5.90509H25.7504V8.64955H27.7594V17.2259H31.001ZM46.9298 8.74106C48.7791 8.74106 49.6235 10.2276 49.6235 11.9658V17.2259H52.8651V11.5769C52.8651 8.26078 50.8796 5.58496 46.9298 5.58496C42.9807 5.58496 41.0398 8.28366 41.0398 11.5769V17.2259H44.2822V11.9658C44.2822 10.2276 45.1039 8.74106 46.9298 8.74106ZM61.1685 17.5232C63.5657 17.5232 65.4377 16.3569 66.4191 14.3214L63.9311 13.0635C63.406 14.1156 62.3785 14.7102 61.1458 14.7102C59.5251 14.7102 58.3605 13.7039 58.132 12.1945H66.5333V11.2339C66.5333 8.1464 64.4563 5.49345 60.8719 5.49345C57.3791 5.49345 55.0047 8.19215 55.0047 11.4626C55.0047 15.0761 57.6531 17.5232 61.1685 17.5232ZM58.2698 10.3877C58.4975 9.24421 59.4335 8.32934 60.8492 8.32934C62.2188 8.32934 63.1775 9.22133 63.3144 10.3877H58.2698Z" fill="white"/>
</svg>
