<svg width="39" height="41" viewBox="0 0 39 41" fill="none" xmlns="http://www.w3.org/2000/svg">
    <mask id="mask0_714_47116" style="mask-type:alpha" maskUnits="userSpaceOnUse" x="0" y="0"
        width="39" height="41">
        <path
            d="M0.363341 7.52241C0.444653 1.75273 6.67232 -1.83618 11.7189 0.978368L34.2159 13.5253C39.3874 16.4093 39.4394 23.8182 34.3092 26.7748L11.4497 39.9483C6.31957 42.9047 -0.0825296 39.1552 0.000805178 33.2428L0.363341 7.52241Z"
            fill="#5A1BFF" />
    </mask>
    <g mask="url(#mask0_714_47116)">
        <path
            d="M0.363341 7.52241C0.444653 1.75273 6.67232 -1.83618 11.7189 0.978368L34.2159 13.5253C39.3874 16.4093 39.4394 23.8182 34.3092 26.7748L11.4497 39.9483C6.31957 42.9047 -0.0825296 39.1552 0.000805178 33.2428L0.363341 7.52241Z"
            fill="white" />
        <path
            d="M-7.26973 11.9035C-7.1884 6.13383 -0.960744 2.54492 4.08585 5.35947L26.5828 17.9064C31.7543 20.7904 31.8064 28.1993 26.6761 31.1559L3.81668 44.3294C-1.31349 47.2858 -7.71558 43.5363 -7.63225 37.6239L-7.26973 11.9035Z"
            fill="#AF91FF" fill-opacity="0.5" />
        <path
            d="M-17.0019 17.2368C-16.9206 11.4671 -10.6929 7.87817 -5.64632 10.6927L16.8507 23.2396C22.0221 26.1236 22.0742 33.5326 16.944 36.4891L-5.91548 49.6627C-11.0457 52.619 -17.4478 48.8695 -17.3644 42.9571L-17.0019 17.2368Z"
            fill="#AF91FF" fill-opacity="0.5" />
        <path
            d="M-9.75043 1.61762C-9.66912 -4.15206 -3.44145 -7.74096 1.60514 -4.92642L24.1021 7.62044C29.2736 10.5046 29.3257 17.9134 24.1954 20.87L1.33598 34.0435C-3.7942 36.9999 -10.1963 33.2504 -10.113 27.338L-9.75043 1.61762Z"
            fill="#AF90FF" fill-opacity="0.2" />
        <path
            d="M-18.1469 -2.76324C-18.0656 -8.53292 -11.8379 -12.1218 -6.79134 -9.30728L15.7056 3.23958C20.8771 6.1237 20.9292 13.5326 15.799 16.4891L-7.0605 29.6627C-12.1907 32.619 -18.5928 28.8695 -18.5094 22.9571L-18.1469 -2.76324Z"
            fill="#AF90FF" fill-opacity="0.2" />
    </g>
</svg>